<svg xmlns="http://www.w3.org/2000/svg" viewBox="0 0 493.39 198.01"><defs><style>.cls-1{fill:#ec6568;}.cls-2,.cls-3{font-size:120px;fill:#1d1d1b;font-family:Quicksand-Regular, Quicksand;}.cls-3{letter-spacing:-0.05em;}.cls-4{letter-spacing:0em;}.cls-5{fill:none;stroke:#933;stroke-miterlimit:10;stroke-width:7px;}.cls-6{fill:#cd3333;}.cls-7{fill:#f9cbcc;}.cls-8{fill:#fff;}</style></defs><title>jome_1</title><g id="Layer_2" data-name="Layer 2"><g id="Layer_1-2" data-name="Layer 1"><path class="cls-1" d="M312.38,43.6,277.73,9,218.17,68.51,158.6,9,135.19,32.36a57.92,57.92,0,0,0,0,81.91L218,197.06l.2-.2.19.2,94-94A42,42,0,0,0,312.38,43.6Z"/><text class="cls-2" transform="translate(0 130.36)">J</text><text class="cls-3" transform="translate(326.96 130.36)">M<tspan class="cls-4" x="95.28" y="0">E</tspan></text><path class="cls-5" d="M305,39.6,270.32,5,210.75,64.51,151.19,5,127.77,28.36a57.94,57.94,0,0,0,0,81.91l82.79,82.79.19-.2.19.2,94-94A42,42,0,0,0,305,39.6Z"/><polygon class="cls-6" points="281.17 85.82 210.46 153.87 139.75 85.82 210.46 100.46 281.17 85.82"/><path class="cls-7" d="M252.78,113.22a38.88,38.88,0,0,0-42.25-.24,38.9,38.9,0,0,0-42.26.24l42.24,40.65,0,0,0,0Z"/><circle class="cls-8" cx="272.57" cy="27.59" r="4.99"/><circle class="cls-8" cx="283.33" cy="35.89" r="2.46"/></g></g></svg>