<svg xmlns="http://www.w3.org/2000/svg" width="144" height="144" viewBox="0 0 144 144">
  <g fill="none" fill-rule="evenodd" transform="translate(0 -1)">
    <circle cx="72" cy="73" r="72" fill="#D4D4D4"/>
    <path fill="#636363" d="M47.2242991,104.093 C49.0467038,104.093 50.524461,102.463206 50.524461,100.453305 C50.524461,98.4451979 49.0467038,96.8136106 47.2242991,96.8136106 C24.8644827,96.8136106 6.67132389,76.7486729 6.67132389,52.0866035 C6.67132389,27.4227412 24.8644827,7.35780352 47.2242991,7.35780352 C69.5906183,7.35780352 87.7821514,27.4227412 87.7854028,52.2372116 C87.7902799,52.337617 88.0373856,59.9953195 85.995512,67.4880703 L82.9505843,59.174147 C82.2677921,57.3130617 80.34622,56.4183781 78.6554967,57.1624536 C76.9647733,57.9154939 76.1486741,60.0365574 76.8314663,61.9012286 L82.7538751,78.0718722 C82.7945175,78.1830353 82.8644224,78.272683 82.9115676,78.3766743 C82.9392044,78.4286699 82.935953,78.4896303 82.9635898,78.5416259 C83.0009808,78.6133441 83.0562545,78.6617538 83.0952712,78.729886 C83.1798073,78.8643575 83.2675949,78.9916572 83.3651366,79.113578 C83.4675554,79.2390847 83.5732257,79.3556266 83.68865,79.4632038 C83.7926946,79.5618162 83.8999905,79.647878 84.0137891,79.7303538 C84.1438448,79.8253803 84.2771518,79.9060632 84.420213,79.9795743 C84.5405145,80.0423276 84.660816,80.0961162 84.7892459,80.142733 C84.9420613,80.2001075 85.0965024,80.2359666 85.2558205,80.2664468 C85.3354796,80.2825834 85.4086359,80.3202354 85.4899207,80.3292001 C85.541943,80.334579 85.5939652,80.3202354 85.6476132,80.3220283 C85.7045125,80.3256142 85.7597862,80.3453367 85.8183112,80.3453367 C85.9191043,80.3453367 86.0215231,80.3130636 86.123942,80.3023058 C86.2539976,80.2879622 86.3824275,80.2772045 86.5092318,80.2467243 C86.66855,80.2108652 86.8148626,80.1481119 86.9676779,80.0835656 C87.0928565,80.0333629 87.2147837,79.9849531 87.3334594,79.9168209 C87.3806046,79.8899266 87.4326269,79.8809619 87.4765206,79.8504817 L102.36464,70.2814912 C103.936688,69.2702657 104.466665,67.041625 103.551398,65.3060464 C102.634506,63.5704679 100.607264,62.9859652 99.0368416,63.9953978 L92.6868748,68.0797448 C94.6360838,59.9576675 94.3987322,52.4398153 94.3824753,52.0901894 C94.3824753,23.4119052 73.2289249,0.082 47.2242991,0.082 C21.226176,0.082 0.071,23.4119052 0.071,52.0901894 C0.071,80.7648877 21.226176,104.093 47.2242991,104.093 Z" transform="rotate(33 28.594 96.53)"/>
  </g>
</svg>
