<svg xmlns="http://www.w3.org/2000/svg" viewBox="0 0 217.38 198.01"><defs><style>.cls-1{fill:#ec6568;}.cls-2{fill:none;stroke:#933;stroke-miterlimit:10;stroke-width:7px;}.cls-3{fill:#cd3333;}.cls-4{fill:#f9cbcc;}.cls-5{fill:#fff;}</style></defs><title>logo_1</title><g id="Layer_2" data-name="Layer 2"><g id="Layer_1-2" data-name="Layer 1"><path class="cls-1" d="M205.07,43.6,170.42,9,110.86,68.51,51.29,9,27.88,32.36a57.92,57.92,0,0,0,0,81.91l82.78,82.79.2-.2.19.2,94-94A42,42,0,0,0,205.07,43.6Z"/><path class="cls-2" d="M197.65,39.6,163,5,103.44,64.51,43.88,5,20.46,28.36a57.94,57.94,0,0,0,0,81.91l82.79,82.79.19-.2.19.2,94-94A42,42,0,0,0,197.65,39.6Z"/><polygon class="cls-3" points="173.86 85.82 103.15 153.87 32.44 85.82 103.15 100.46 173.86 85.82"/><path class="cls-4" d="M145.47,113.22a38.88,38.88,0,0,0-42.25-.24,38.9,38.9,0,0,0-42.26.24l42.24,40.65,0,0,0,0Z"/><circle class="cls-5" cx="165.26" cy="27.59" r="4.99"/><circle class="cls-5" cx="176.02" cy="35.89" r="2.46"/></g></g></svg>