<svg xmlns="http://www.w3.org/2000/svg" width="180" height="180" viewBox="0 0 180 180">
  <g fill="none" fill-rule="evenodd">
    <circle cx="90" cy="90" r="88.5" fill="#FFF" stroke="#858585" stroke-width="3"/>
    <g transform="translate(27 38)">
      <path fill="#65E0EC" d="M121.242,23.2 L100.452,2.40414508 L64.716,38.1718135 L28.974,2.40414508 L14.928,16.4443523 C1.35699962,30.0392062 1.35699962,52.0803793 14.928,65.6752332 L64.596,115.435026 L64.716,115.314819 L64.83,115.435026 L121.23,58.9376166 C125.969085,54.2036025 128.633588,47.7755883 128.635839,41.0713016 C128.63809,34.3670149 125.977905,27.9372066 121.242,23.2 Z"/>
      <path stroke="#337B99" stroke-width="4.2" d="M116.79,20.7958549 L96,0 L60.264,35.7676684 L24.528,0 L10.476,14.0402073 C-3.08837721,27.6378085 -3.08837721,49.6734868 10.476,63.2710881 L60.15,113.030881 L60.264,112.910674 L60.378,113.030881 L116.778,56.5334715 C121.517085,51.7994574 124.181588,45.3714432 124.183839,38.6671565 C124.18609,31.9628698 121.525905,25.5330615 116.79,20.7958549 Z"/>
      <ellipse cx="97.356" cy="13.577" fill="#FFF" rx="2.994" ry="2.999"/>
      <ellipse cx="103.812" cy="18.566" fill="#FFF" rx="1.476" ry="1.479"/>
    </g>
  </g>
</svg>
